<svg id="Layer_1" data-name="Layer 1" xmlns="http://www.w3.org/2000/svg" viewBox="0 0 80 80"><defs><style>.cls-1{stroke:#fff;stroke-miterlimit:10;}</style></defs><title>23</title><path class="cls-1" d="M40,59.17A24,24,0,0,1,28,38.61,23.94,23.94,0,0,0,16,59.17a24,24,0,0,0,24,0Z"/><path class="cls-1" d="M52,38.61A24,24,0,0,1,40,59.17a24,24,0,0,0,24,0A23.94,23.94,0,0,0,52,38.61Z"/><path class="cls-1" d="M28,38.39a1.7,1.7,0,0,0,0,.22,23.93,23.93,0,0,1,24,0,1.7,1.7,0,0,0,0-.22A24,24,0,0,0,40,17.61,24,24,0,0,0,28,38.39Z"/><path class="cls-1" d="M28,38.61A24,24,0,0,0,40,59.17,24,24,0,0,0,52,38.61a23.93,23.93,0,0,0-24,0Z"/></svg>