<svg id="Layer_1" data-name="Layer 1" xmlns="http://www.w3.org/2000/svg" viewBox="0 0 80 80"><defs><style>.cls-1{stroke:#fff;stroke-miterlimit:10;}</style></defs><title>24</title><path class="cls-1" d="M23,40a23.88,23.88,0,0,1,10.76-6.21A23.88,23.88,0,0,1,40,23a24,24,0,0,0-23.18-6.21A24,24,0,0,0,23,40Z"/><path class="cls-1" d="M40,57a23.88,23.88,0,0,1-6.21-10.76A23.88,23.88,0,0,1,23,40a24,24,0,0,0-6.21,23.18A24,24,0,0,0,40,57Z"/><path class="cls-1" d="M33.79,33.79A23.88,23.88,0,0,0,23,40a23.88,23.88,0,0,0,10.76,6.21A24.21,24.21,0,0,1,33.79,33.79Z"/><path class="cls-1" d="M40,23a23.88,23.88,0,0,1,6.21,10.76A23.88,23.88,0,0,1,57,40a24,24,0,0,0,6.21-23.18A24,24,0,0,0,40,23Z"/><path class="cls-1" d="M46.21,33.79A23.88,23.88,0,0,0,40,23a23.88,23.88,0,0,0-6.21,10.76A24.21,24.21,0,0,1,46.21,33.79Z"/><path class="cls-1" d="M57,40a23.88,23.88,0,0,1-10.76,6.21A23.88,23.88,0,0,1,40,57a24,24,0,0,0,23.18,6.21A24,24,0,0,0,57,40Z"/><path class="cls-1" d="M33.79,46.21A23.88,23.88,0,0,0,40,57a23.88,23.88,0,0,0,6.21-10.76A24.21,24.21,0,0,1,33.79,46.21Z"/><path class="cls-1" d="M46.21,46.21A23.88,23.88,0,0,0,57,40a23.88,23.88,0,0,0-10.76-6.21A24.21,24.21,0,0,1,46.21,46.21Z"/><circle class="cls-1" cx="40" cy="40" r="8.78"/></svg>