<svg id="Layer_1" data-name="Layer 1" xmlns="http://www.w3.org/2000/svg" viewBox="0 0 80 80"><defs><style>.cls-1{stroke:#fff;stroke-miterlimit:10;}</style></defs><title>25</title><path class="cls-1" d="M28,28a23.92,23.92,0,0,1,12,3.22A23.92,23.92,0,0,1,52,28,24,24,0,0,0,40,7.22,24,24,0,0,0,28,28Z"/><path class="cls-1" d="M28,52a23.92,23.92,0,0,1,3.22-12A23.92,23.92,0,0,1,28,28,24,24,0,0,0,7.22,40,24,24,0,0,0,28,52Z"/><path class="cls-1" d="M40,31.22A23.92,23.92,0,0,0,28,28a23.92,23.92,0,0,0,3.22,12A24.16,24.16,0,0,1,40,31.22Z"/><path class="cls-1" d="M52,28a23.92,23.92,0,0,1-3.22,12A23.92,23.92,0,0,1,52,52,24,24,0,0,0,72.78,40,24,24,0,0,0,52,28Z"/><path class="cls-1" d="M48.78,40A23.92,23.92,0,0,0,52,28a23.92,23.92,0,0,0-12,3.22A24.16,24.16,0,0,1,48.78,40Z"/><path class="cls-1" d="M52,52a23.92,23.92,0,0,1-12-3.22A23.92,23.92,0,0,1,28,52,24,24,0,0,0,40,72.78,24,24,0,0,0,52,52Z"/><path class="cls-1" d="M31.22,40A23.92,23.92,0,0,0,28,52a23.92,23.92,0,0,0,12-3.22A24.16,24.16,0,0,1,31.22,40Z"/><path class="cls-1" d="M40,48.78A23.92,23.92,0,0,0,52,52a23.92,23.92,0,0,0-3.22-12A24.16,24.16,0,0,1,40,48.78Z"/><circle class="cls-1" cx="40" cy="40" r="8.78"/><circle class="cls-1" cx="40" cy="40" r="24"/></svg>